<svg width="44" height="24" viewBox="0 0 44 24" fill="none" xmlns="http://www.w3.org/2000/svg">
<rect x="0.5" y="0.5" width="23" height="23" rx="11.5" fill="black" fill-opacity="0.95"/>
<rect x="0.5" y="0.5" width="23" height="23" rx="11.5" stroke="#E0E0E0"/>
<path d="M11.2689 14.5409L9.62146 17.4735H6.60583L5.68396 14.2343L7.33142 12.2509L11.2689 14.5409ZM16.1566 9.23523L18.3627 17.4735H12.9886L8.64392 9.87781L11.4369 6.52625L16.1566 9.23523Z" fill="white"/>
<rect x="20.5" y="0.5" width="23" height="23" rx="11.5" fill="black" fill-opacity="0.95"/>
<rect x="20.5" y="0.5" width="23" height="23" rx="11.5" stroke="#E0E0E0"/>
<path d="M29.9497 13.8711L30.4702 14.8135V14.9746L29.9224 15.918L29.7817 16H24.6509V15.9971L24.4878 15.834V15.6289L24.5083 15.5488L24.5298 15.5107L25.4644 13.8691L25.605 13.7871H29.8081L29.9497 13.8711ZM33.3638 10.9756L34.9458 13.7451L35.022 13.7881H39.396L39.5122 13.9941L38.3208 15.9961H33.8618L33.7202 15.9131L32.146 13.1221L32.0708 13.0781H27.2085L27.0669 12.834L28.1255 10.9756L28.2661 10.8945H33.2222L33.3638 10.9756ZM37.5669 8.08203L38.6724 10.0176V10.1816L37.5239 12.1191L37.3843 12.1992H35.3296L35.189 11.9531L36.2134 10.2285L36.1772 10.1641H26.9712L26.8296 9.9209L27.8794 8.08203L28.021 8H37.4253L37.5669 8.08203Z" fill="white"/>
</svg>
