<svg width="44" height="24" viewBox="0 0 44 24" fill="none" xmlns="http://www.w3.org/2000/svg">
<rect x="0.5" y="0.5" width="23" height="23" rx="11.5" fill="#111113"/>
<rect x="0.5" y="0.5" width="23" height="23" rx="11.5" stroke="#E0E0E0"/>
<path d="M11.2689 14.5409L9.62146 17.4735H6.60583L5.68396 14.2343L7.33142 12.2509L11.2689 14.5409ZM16.1566 9.23523L18.3627 17.4735H12.9886L8.64392 9.87781L11.4369 6.52625L16.1566 9.23523Z" fill="white"/>
<rect x="20.5" y="0.5" width="23" height="23" rx="11.5" fill="#111113"/>
<rect x="20.5" y="0.5" width="23" height="23" rx="11.5" stroke="#E0E0E0"/>
<g clip-path="url(#clip0_474_23049)">
<path d="M39.3846 11.9422C39.3846 7.91449 36.1195 4.64941 32.0918 4.64941C28.0641 4.64941 24.7991 7.91449 24.7991 11.9422C24.7991 15.9698 28.0641 19.2349 32.0918 19.2349C36.1195 19.2349 39.3846 15.9698 39.3846 11.9422Z" fill="white"/>
<path d="M32.0907 17.6901C35.3062 17.6901 37.9129 15.0834 37.9129 11.8678C37.9129 8.65226 35.3062 6.04553 32.0907 6.04553C28.8751 6.04553 26.2684 8.65226 26.2684 11.8678C26.2684 15.0834 28.8751 17.6901 32.0907 17.6901Z" fill="white" stroke="#000000F2" stroke-width="0.540037"/>
<path d="M32.6719 10.4479C32.2543 10.7361 31.8053 10.8349 31.3257 10.7436C30.8452 10.6529 30.4636 10.4018 30.1799 9.99083L29.7579 9.3793L30.3633 8.96143L30.7854 9.57296C30.9533 9.81627 31.1774 9.96374 31.4585 10.0148C31.7388 10.0665 32.0029 10.0068 32.249 9.83693L33.3171 9.09511C33.6566 8.85936 34.123 8.94414 34.3578 9.2843L32.6719 10.4479Z" fill="#000000F2"/>
<path d="M33.4893 12.4798C33.2006 12.0614 33.1011 11.6119 33.1914 11.1321C33.2812 10.6515 33.5315 10.27 33.9417 9.98692L34.552 9.56567L34.9707 10.1723L34.3603 10.5935C34.1175 10.7611 33.9705 10.9851 33.92 11.2664C33.8688 11.5468 33.9289 11.8111 34.0991 12.0577L34.8439 13.1301C35.0793 13.469 34.9946 13.9345 34.6551 14.1689L33.4893 12.4798Z" fill="#000000F2"/>
<path d="M31.4498 13.3013C31.8674 13.013 32.3164 12.9143 32.796 13.0055C33.2764 13.0962 33.6581 13.3473 33.9417 13.7583L34.3638 14.3698L33.7584 14.7877L33.3363 14.1762C33.1684 13.9329 32.9442 13.7854 32.6631 13.7343C32.3828 13.6827 32.1188 13.7423 31.8726 13.9122L30.8045 14.654C30.4651 14.8898 29.9986 14.805 29.7639 14.4648L31.4498 13.3013Z" fill="#000000F2"/>
<path d="M30.6689 11.3224C30.9576 11.7408 31.0571 12.1903 30.9668 12.6701C30.877 13.1507 30.6267 13.5321 30.2165 13.8152L29.6062 14.2365L29.1875 13.6299L29.7979 13.2086C30.0407 13.041 30.1877 12.817 30.2383 12.5358C30.2894 12.2554 30.2293 11.9911 30.0591 11.7445L29.3143 10.672C29.0789 10.3332 29.1636 9.86764 29.5031 9.6333L30.6689 11.3224Z" fill="#000000F2"/>
</g>
<defs>
<clipPath id="clip0_474_23049">
<rect width="15" height="15" fill="white" transform="translate(24.5 4.5)"/>
</clipPath>
</defs>
</svg>
