<svg width="44" height="24" viewBox="0 0 44 24" fill="none" xmlns="http://www.w3.org/2000/svg">
<rect x="0.5" y="0.5" width="23" height="23" rx="11.5" fill="black" fill-opacity="0.95"/>
<rect x="0.5" y="0.5" width="23" height="23" rx="11.5" stroke="#E0E0E0"/>
<path d="M11.2689 14.5409L9.62146 17.4735H6.60583L5.68396 14.2343L7.33142 12.2509L11.2689 14.5409ZM16.1566 9.23523L18.3627 17.4735H12.9886L8.64392 9.87781L11.4369 6.52625L16.1566 9.23523Z" fill="white"/>
<rect x="20.5" y="0.5" width="23" height="23" rx="11.5" fill="black" fill-opacity="0.95"/>
<rect x="20.5" y="0.5" width="23" height="23" rx="11.5" stroke="#E0E0E0"/>
<path d="M30.3732 12.8333L28.5766 17.4999H26.5V12.8333H30.3732Z" fill="white"/>
<path d="M32.2294 7.25712L26.5 12.8333V6.5H33.007L32.2294 7.25712Z" fill="white"/>
<path d="M37.5001 17.4997H28.5142L29.2508 16.7805L35.0308 11.1317L31.1466 11.1272L32.9948 6.5H33.7908C36.6966 6.5 38.0893 10.2843 35.9518 12.3714L34.1024 14.1786L34.1002 14.181L37.5001 17.5V17.4997Z" fill="white"/>
</svg>
