<svg width="44" height="24" viewBox="0 0 44 24" fill="none" xmlns="http://www.w3.org/2000/svg">
<rect x="0.5" y="0.5" width="23" height="23" rx="11.5" fill="black" fill-opacity="0.95"/>
<rect x="0.5" y="0.5" width="23" height="23" rx="11.5" stroke="#E0E0E0"/>
<path d="M11.2689 14.5409L9.62146 17.4735H6.60583L5.68396 14.2343L7.33142 12.2509L11.2689 14.5409ZM16.1566 9.23523L18.3627 17.4735H12.9886L8.64392 9.87781L11.4369 6.52625L16.1566 9.23523Z" fill="white"/>
<rect x="20.5" y="0.5" width="23" height="23" rx="11.5" fill="black" fill-opacity="0.95"/>
<rect x="20.5" y="0.5" width="23" height="23" rx="11.5" stroke="#E0E0E0"/>
<path d="M30.9666 13.9482L32 4.5V15.7351H30.4462L29.7889 16.2729L29.3705 16.0637V15.6963L30.3462 14.9648H31.1439L30.9666 13.9482Z" fill="white"/>
<path d="M33.0334 13.9482L32 4.5V15.7351H33.5538L34.2112 16.2729L34.6295 16.0637V15.6963L33.6539 14.9648H32.8562L33.0334 13.9482Z" fill="white"/>
<path d="M32.7769 16.0338H31.2231L31.5278 18.1254C31.9083 17.9732 32.1222 17.9697 32.5027 18.1254L32.7769 16.0338Z" fill="white"/>
<circle cx="32" cy="18.9024" r="0.597609" fill="white"/>
</svg>
