<svg width="44" height="24" viewBox="0 0 44 24" fill="none" xmlns="http://www.w3.org/2000/svg">
<rect x="0.5" y="0.5" width="23" height="23" rx="11.5" fill="black" fill-opacity="0.95"/>
<rect x="0.5" y="0.5" width="23" height="23" rx="11.5" stroke="#E0E0E0"/>
<path d="M11.2689 14.5409L9.62146 17.4735H6.60583L5.68396 14.2343L7.33142 12.2509L11.2689 14.5409ZM16.1566 9.23523L18.3627 17.4735H12.9886L8.64392 9.87781L11.4369 6.52625L16.1566 9.23523Z" fill="white"/>
<rect x="20.5" y="0.5" width="23" height="23" rx="11.5" fill="black" fill-opacity="0.95"/>
<rect x="20.5" y="0.5" width="23" height="23" rx="11.5" stroke="#E0E0E0"/>
<g clip-path="url(#clip0_bam)">
<g transform="translate(25.5 4.5) scale(0.1 0.10204)">
<path d="M124.208 34.2304C125.338 34.8826 125.338 35.939 124.208 36.5912L100.697 50.1653C99.5673 50.8175 97.7375 50.8175 96.6079 50.1653L85.4912 43.7471C83.8097 42.7763 81.0548 42.6789 79.3221 43.6202C77.5894 44.5616 77.5025 46.217 79.2301 47.2144L90.4746 53.7064C91.6041 54.3586 91.6041 55.415 90.4746 56.0672L66.9634 69.6413C65.8338 70.2935 64.0041 70.2935 62.8745 69.6413L5.62989 36.5912C4.50034 35.939 4.50033 34.8826 5.62989 34.2304L62.8694 1.18319C63.9989 0.531042 65.8338 0.528091 66.9634 1.18024L124.208 34.2304ZM58.7805 37.7745C57.0887 36.7977 54.3389 36.7977 52.6471 37.7745L49.5805 39.545C47.8887 40.5218 47.8887 42.1094 49.5805 43.0861C51.2722 44.0629 54.022 44.0629 55.7138 43.0861L58.7805 41.3156C60.4723 40.3388 60.4723 38.7512 58.7805 37.7745ZM78.2028 26.561C76.511 25.5843 73.7612 25.5843 72.0694 26.561L69.0027 28.3316C67.311 29.3083 67.3109 30.8959 69.0027 31.8727C70.6945 32.8494 73.4443 32.8494 75.1361 31.8727L78.2028 30.1021C79.8945 29.1254 79.8945 27.5378 78.2028 26.561Z" fill="white"/>
<path d="M59.2891 76.1449L2.04445 43.0947C0.914891 42.4425 0 42.9707 0 44.275V110.375C0 111.674 0.914891 113.264 2.04445 113.916L24.5334 126.9C25.663 127.553 26.5779 127.024 26.5779 125.72V108.162C26.5779 106.226 27.871 105.285 29.5423 106.185C31.2136 107.085 32.7112 109.555 32.7112 111.556V129.261C32.7112 130.566 33.6261 132.15 34.7557 132.802L59.2891 146.967C60.4135 147.616 61.3335 147.085 61.3335 145.786V79.6859C61.3335 78.3816 60.4135 76.7941 59.2891 76.1449ZM32.7112 86.7681C32.7112 88.7216 31.3363 89.5154 29.6445 88.5387C27.9527 87.5619 26.5779 85.1805 26.5779 83.227V79.6859C26.5779 77.7265 27.9476 76.9357 29.6445 77.9154C31.3414 78.8951 32.7112 81.2676 32.7112 83.227V86.7681Z" fill="white"/>
<path d="M129.768 44.2782L129.758 110.384C129.758 111.683 128.838 113.276 127.714 113.926L115.447 121.008C114.318 121.66 113.403 121.126 113.403 119.821V102.116C113.403 100.115 111.977 99.3333 110.239 100.402C108.501 101.47 107.269 103.869 107.269 105.805V123.363C107.269 124.667 106.349 126.254 105.22 126.907L92.9531 133.989C91.8235 134.641 90.9086 134.107 90.9086 132.803V115.097C90.9086 113.096 89.4826 112.314 87.7448 113.383C86.007 114.451 84.7753 116.85 84.7753 118.786V136.344C84.7753 137.648 83.8553 139.235 82.7257 139.888L70.459 146.97C69.3294 147.622 68.4146 147.082 68.4146 145.784L68.4248 79.6773C68.435 78.373 69.3499 76.7884 70.4794 76.1362L93.9906 62.562C95.1202 61.9099 96.0351 62.444 96.0351 63.7483V76.7323C96.0351 78.7212 97.4508 79.5091 99.1835 78.4556C100.916 77.4021 102.163 74.9883 102.163 73.0466V60.2101C102.163 58.9058 103.083 57.3183 104.213 56.6661L127.724 43.0919C128.848 42.4427 129.768 42.9739 129.768 44.2782Z" fill="white"/>
</g>
</g>
<defs>
<clipPath id="clip0_bam">
<rect width="13" height="15" fill="white" transform="translate(25.5 4.5)"/>
</clipPath>
</defs>
</svg>
