<svg width="12" height="12" viewBox="0 0 12 12" fill="currentColor" xmlns="http://www.w3.org/2000/svg">
<path d="M6.39844 3.39062V9.89844H11.6484V11.0742H0V9.89844H5.25V3.39062C4.72135 3.20833 4.36589 2.85286 4.18359 2.32422H2.32422L4.07422 6.39844C4.07422 6.72656 3.98307 7.02734 3.80078 7.30078C3.61849 7.55599 3.3724 7.76562 3.0625 7.92969C2.7526 8.07552 2.40625 8.14844 2.02344 8.14844C1.65885 8.14844 1.32161 8.07552 1.01172 7.92969C0.701823 7.76562 0.455729 7.55599 0.273438 7.30078C0.0911458 7.02734 0 6.72656 0 6.39844L1.75 2.32422H0.574219V1.14844H4.18359C4.29297 0.820312 4.49349 0.546875 4.78516 0.328125C5.09505 0.109375 5.44141 0 5.82422 0C6.20703 0 6.54427 0.109375 6.83594 0.328125C7.14583 0.546875 7.35547 0.820312 7.46484 1.14844H11.0742V2.32422H9.89844L11.6484 6.39844C11.6484 6.72656 11.5573 7.02734 11.375 7.30078C11.1927 7.55599 10.9466 7.76562 10.6367 7.92969C10.3268 8.07552 9.98958 8.14844 9.625 8.14844C9.24219 8.14844 8.89583 8.07552 8.58594 7.92969C8.27604 7.76562 8.02995 7.55599 7.84766 7.30078C7.66536 7.02734 7.57422 6.72656 7.57422 6.39844L9.32422 2.32422H7.46484C7.28255 2.85286 6.92708 3.20833 6.39844 3.39062ZM10.7188 6.39844L9.625 3.85547L8.53125 6.39844H10.7188ZM3.11719 6.39844L2.02344 3.85547L0.929688 6.39844H3.11719ZM5.82422 2.32422C5.98828 2.32422 6.125 2.26953 6.23438 2.16016C6.34375 2.03255 6.39844 1.89583 6.39844 1.75C6.39844 1.58594 6.34375 1.44922 6.23438 1.33984C6.125 1.21224 5.98828 1.14844 5.82422 1.14844C5.66016 1.14844 5.52344 1.21224 5.41406 1.33984C5.30469 1.44922 5.25 1.58594 5.25 1.75C5.25 1.89583 5.30469 2.03255 5.41406 2.16016C5.52344 2.26953 5.66016 2.32422 5.82422 2.32422Z"/>
</svg>
