<svg width="12" height="13" viewBox="0 0 12 13" fill="none" xmlns="http://www.w3.org/2000/svg">
<path d="M6 0.675781C9.22656 0.675781 11.8242 3.27344 11.8242 6.5C11.8242 9.72656 9.22656 12.3242 6 12.3242C2.77344 12.3242 0.175781 9.72656 0.175781 6.5C0.175781 3.27344 2.77344 0.675781 6 0.675781ZM6 11.1758C8.57031 11.1758 10.6758 9.07031 10.6758 6.5C10.6758 3.92969 8.57031 1.82422 6 1.82422C3.42969 1.82422 1.32422 3.92969 1.32422 6.5C1.32422 9.07031 3.42969 11.1758 6 11.1758ZM8.67969 3.92969L9.5 4.75L4.82422 9.42578L2.5 7.07422L3.32031 6.25391L4.82422 7.75781L8.67969 3.92969Z" fill="#1D863B"/>
</svg>
