<svg width="35" height="20" viewBox="0 0 35 20" fill="none" xmlns="http://www.w3.org/2000/svg">
<circle cx="25" cy="10" r="9.5" stroke="#3E332E"/>
<mask id="path-2-inside-1_10887_28103" fill="white">
<path d="M10 0C13.2712 0 16.1755 1.57069 18 3.99902C16.7442 5.67051 16 7.74835 16 10C16 12.2514 16.7445 14.3286 18 16C16.1756 18.4287 13.2715 20 10 20C4.47715 20 0 15.5228 0 10C0 4.47715 4.47715 0 10 0Z"/>
</mask>
<path d="M18 3.99902L18.7995 4.5997L19.2508 3.99902L18.7995 3.39835L18 3.99902ZM18 16L18.7995 16.6006L19.2507 16L18.7995 15.3994L18 16ZM10 0V1C12.9434 1 15.5568 2.41194 17.2005 4.5997L18 3.99902L18.7995 3.39835C16.7943 0.729431 13.599 -1 10 -1V0ZM18 3.99902L17.2005 3.39835C15.819 5.23708 15 7.52433 15 10H16H17C17 7.97237 17.6693 6.10394 18.7995 4.5997L18 3.99902ZM16 10H15C15 12.4755 15.8194 14.7621 17.2005 16.6006L18 16L18.7995 15.3994C17.6695 13.8951 17 12.0272 17 10H16ZM18 16L17.2005 15.3994C15.5567 17.5876 12.9436 19 10 19V20V21C13.5994 21 16.7944 19.2698 18.7995 16.6006L18 16ZM10 20V19C5.02944 19 1 14.9706 1 10H0H-1C-1 16.0751 3.92487 21 10 21V20ZM0 10H1C1 5.02944 5.02944 1 10 1V0V-1C3.92487 -1 -1 3.92487 -1 10H0Z" fill="#3E332E" mask="url(#path-2-inside-1_10887_28103)"/>
</svg>
