<svg width="11" height="11" viewBox="0 0 11 11" fill="none" xmlns="http://www.w3.org/2000/svg">
<path d="M5.84766 3.17578V5.63672L7.87109 6.86719L7.46094 7.57812L4.97266 6.07422V3.17578H5.84766ZM10.7969 4.40625H6.83203L8.44531 2.76562C7.64323 1.96354 6.67708 1.5625 5.54688 1.5625C4.4349 1.54427 3.47786 1.92708 2.67578 2.71094C2.34766 3.03906 2.0651 3.48568 1.82812 4.05078C1.59115 4.59766 1.47266 5.09896 1.47266 5.55469C1.47266 6.01042 1.59115 6.52083 1.82812 7.08594C2.0651 7.63281 2.34766 8.07031 2.67578 8.39844C3.00391 8.72656 3.45052 9.00911 4.01562 9.24609C4.58073 9.48307 5.09115 9.60156 5.54688 9.60156C6.0026 9.60156 6.51302 9.48307 7.07812 9.24609C7.66146 9.00911 8.11719 8.72656 8.44531 8.39844C9.22917 7.61458 9.62109 6.66667 9.62109 5.55469H10.7969C10.7969 6.99479 10.2865 8.21615 9.26562 9.21875C8.24479 10.2396 7.00521 10.75 5.54688 10.75C4.08854 10.75 2.84896 10.2396 1.82812 9.21875C0.807292 8.21615 0.296875 7.00391 0.296875 5.58203C0.296875 4.14193 0.807292 2.91146 1.82812 1.89062C2.2474 1.47135 2.8125 1.11589 3.52344 0.824219C4.2526 0.514323 4.91797 0.359375 5.51953 0.359375C6.12109 0.359375 6.77734 0.514323 7.48828 0.824219C8.21745 1.11589 8.79167 1.47135 9.21094 1.89062L10.7969 0.25V4.40625Z" fill="#3CB4FF"/>
</svg>
