<svg width="13" height="11" viewBox="0 0 13 11" fill="#3CB4FF" xmlns="http://www.w3.org/2000/svg">
<path d="M6.54688 3.17578H7.42188V5.63672L9.47266 6.86719L9.03516 7.57812L6.54688 6.07422V3.17578ZM3.40234 1.78125C4.44141 0.760417 5.68099 0.25 7.12109 0.25C8.5612 0.25 9.79167 0.760417 10.8125 1.78125C11.8516 2.80208 12.3711 4.04167 12.3711 5.5C12.3711 6.95833 11.8516 8.19792 10.8125 9.21875C9.79167 10.2396 8.5612 10.75 7.12109 10.75C6.51953 10.75 5.85417 10.6042 5.125 10.3125C4.41406 10.0026 3.84896 9.63802 3.42969 9.21875L4.25 8.37109C5.05208 9.17318 6.00911 9.57422 7.12109 9.57422C8.2513 9.57422 9.21745 9.18229 10.0195 8.39844C10.8216 7.59635 11.2227 6.63021 11.2227 5.5C11.2227 4.36979 10.8216 3.41276 10.0195 2.62891C9.21745 1.82682 8.2513 1.42578 7.12109 1.42578C5.99089 1.42578 5.02474 1.82682 4.22266 2.62891C3.4388 3.41276 3.04688 4.36979 3.04688 5.5H4.79688L2.44531 7.85156L2.39062 7.76953L0.121094 5.5H1.87109C1.87109 4.04167 2.38151 2.80208 3.40234 1.78125Z"/>
</svg>
