<svg width="13" height="12" viewBox="0 0 13 12" fill="none" xmlns="http://www.w3.org/2000/svg">
<path d="M5.92578 3.07422V4.25H7.07422V3.07422H5.92578ZM5.92578 5.42578V8.92578H7.07422V5.42578H5.92578ZM6.5 0.175781C9.72656 0.175781 12.3242 2.77344 12.3242 6C12.3242 9.22656 9.72656 11.8242 6.5 11.8242C3.27344 11.8242 0.675781 9.22656 0.675781 6C0.675781 2.77344 3.27344 0.175781 6.5 0.175781ZM6.5 10.6758C9.07031 10.6758 11.1758 8.57031 11.1758 6C11.1758 3.42969 9.07031 1.32422 6.5 1.32422C3.92969 1.32422 1.82422 3.42969 1.82422 6C1.82422 8.57031 3.92969 10.6758 6.5 10.6758Z" fill="#B2BCC9"/>
</svg>
