<svg width="14" height="15" viewBox="0 0 14 15" fill="none" xmlns="http://www.w3.org/2000/svg">
<path d="M3.41406 3.41406C8.96875 8.99219 12.3438 12.3672 13.5391 13.5391L12.5898 14.4883L9.25 11.1484L8.86328 11.5V13.75H5.13672V11.5L2.5 8.86328V4.75C2.5 4.63281 2.51172 4.53906 2.53516 4.46875L0.0390625 1.9375L0.988281 0.988281L3.37891 3.41406H3.41406ZM11.5 8.86328L11.1484 9.25L4.01172 2.11328V0.25H5.48828V3.23828H8.51172V0.25H9.98828V3.23828C10.3633 3.23828 10.7031 3.40234 11.0078 3.73047C11.3359 4.03516 11.5 4.375 11.5 4.75V8.86328Z" fill="#FFA73C"/>
</svg>
