<svg xmlns="http://www.w3.org/2000/svg" width="24" height="24" viewBox="0 0 24 24" fill="none">
  <rect x="1" y="0.5" width="22.5" height="22.5" rx="7.5" fill="#3E3E3E" stroke="#505050"/>
  <path d="M12.3438 10.5H12.4258C12.8997 10.5 13.3099 10.6732 13.6562 11.0195C14.0026 11.3659 14.1758 11.776 14.1758 12.25V12.3594L12.3438 10.5ZM9.82812 10.9648C9.60938 11.4023 9.5 11.8307 9.5 12.25C9.5 13.0521 9.78255 13.7448 10.3477 14.3281C10.931 14.8932 11.6237 15.1758 12.4258 15.1758C12.8451 15.1758 13.2734 15.0664 13.7109 14.8477L12.8086 13.9453C12.6628 13.9818 12.5352 14 12.4258 14C11.9518 14 11.5417 13.8268 11.1953 13.4805C10.849 13.1341 10.6758 12.724 10.6758 12.25C10.6758 12.1406 10.694 12.013 10.7305 11.8672L9.82812 10.9648ZM6.60156 7.73828L7.33984 7L17.6758 17.3359L16.9375 18.0742C16.8464 17.9831 16.5547 17.7005 16.0625 17.2266C15.5885 16.7526 15.224 16.388 14.9688 16.1328C14.1849 16.4609 13.3372 16.625 12.4258 16.625C10.9857 16.625 9.68229 16.224 8.51562 15.4219C7.34896 14.6198 6.51042 13.5625 6 12.25C6.20052 11.776 6.51042 11.2565 6.92969 10.6914C7.36719 10.1081 7.78646 9.66146 8.1875 9.35156C7.96875 9.13281 7.65885 8.82292 7.25781 8.42188C6.875 8.02083 6.65625 7.79297 6.60156 7.73828ZM12.4258 9.32422C12.0612 9.32422 11.7057 9.39714 11.3594 9.54297L10.1016 8.28516C10.8125 8.01172 11.5872 7.875 12.4258 7.875C13.8659 7.875 15.1602 8.27604 16.3086 9.07812C17.4753 9.88021 18.3138 10.9375 18.8242 12.25C18.3867 13.3255 17.7214 14.2461 16.8281 15.0117L15.1328 13.3164C15.2786 12.9701 15.3516 12.6146 15.3516 12.25C15.3516 11.4479 15.0599 10.7643 14.4766 10.1992C13.9115 9.61589 13.2279 9.32422 12.4258 9.32422Z" fill="#C7C7C7"/>
</svg>