<svg width="30" height="30" viewBox="0 0 30 30" fill="none" xmlns="http://www.w3.org/2000/svg">
<rect x="0.5" y="0.5" width="29" height="29" rx="4.5" fill="#3E3E3E" stroke="#505050"/>
<path d="M15.1194 13.4056H15.2241C15.8292 13.4056 16.3528 13.6267 16.7949 14.0688C17.2371 14.511 17.4582 15.0346 17.4582 15.6396V15.7793L15.1194 13.4056ZM11.908 13.999C11.6287 14.5575 11.4891 15.1044 11.4891 15.6396C11.4891 16.6636 11.8498 17.5479 12.5712 18.2926C13.3159 19.014 14.2002 19.3747 15.2241 19.3747C15.7594 19.3747 16.3062 19.235 16.8647 18.9558L15.7128 17.8039C15.5266 17.8504 15.3637 17.8737 15.2241 17.8737C14.6191 17.8737 14.0955 17.6526 13.6533 17.2104C13.2112 16.7683 12.9901 16.2447 12.9901 15.6396C12.9901 15.5 13.0134 15.3371 13.0599 15.1509L11.908 13.999ZM7.78895 9.87999L8.73144 8.9375L21.9262 22.1323L20.9838 23.0748C20.8674 22.9584 20.4951 22.5977 19.8667 21.9927C19.2617 21.3876 18.7963 20.9222 18.4705 20.5964C17.4698 21.0153 16.3877 21.2247 15.2241 21.2247C13.3857 21.2247 11.7218 20.7128 10.2324 19.6888C8.74307 18.6649 7.67259 17.3152 7.021 15.6396C7.27698 15.0346 7.67259 14.3713 8.20783 13.6499C8.76634 12.9053 9.30158 12.3351 9.81355 11.9395C9.53429 11.6602 9.13868 11.2646 8.62671 10.7527C8.13802 10.2407 7.85876 9.9498 7.78895 9.87999ZM15.2241 11.9046C14.7587 11.9046 14.3049 11.9977 13.8628 12.1838L12.257 10.5781C13.1646 10.2291 14.1536 10.0545 15.2241 10.0545C17.0626 10.0545 18.7148 10.5665 20.1809 11.5904C21.6703 12.6144 22.7407 13.9641 23.3923 15.6396C22.8338 17.0126 21.9844 18.1878 20.8441 19.1652L18.6799 17.001C18.8661 16.5588 18.9592 16.1051 18.9592 15.6396C18.9592 14.6157 18.5868 13.743 17.8421 13.0216C17.1207 12.2769 16.2481 11.9046 15.2241 11.9046Z" fill="#C7C7C7"/>
</svg>
