<svg width="12" height="13" viewBox="0 0 12 13" fill="none" xmlns="http://www.w3.org/2000/svg">
<path d="M8.46094 10L7.80469 7.18359L9.99219 5.29688L7.12109 5.05078L6 2.42578L4.87891 5.07812L2.00781 5.29688L4.19531 7.18359L3.53906 10L6 8.52344L8.46094 10ZM1.87109 2.39844C3.01953 1.25 4.39583 0.675781 6 0.675781C7.60417 0.675781 8.97135 1.25 10.1016 2.39844C11.25 3.52865 11.8242 4.89583 11.8242 6.5C11.8242 8.10417 11.25 9.48047 10.1016 10.6289C8.97135 11.7591 7.60417 12.3242 6 12.3242C4.39583 12.3242 3.01953 11.7591 1.87109 10.6289C0.740885 9.48047 0.175781 8.10417 0.175781 6.5C0.175781 4.89583 0.740885 3.52865 1.87109 2.39844Z" fill="#1D863B"/>
</svg>
