<svg width="18" height="18" viewBox="0 0 18 18" fill="none" xmlns="http://www.w3.org/2000/svg">
<path fill-rule="evenodd" clip-rule="evenodd" d="M8.01469 6.00051C5.58562 6.03619 3 7.94365 3 12C3 12.5523 2.55228 13 2 13C1.44772 13 1 12.5523 1 12C1 6.90007 4.41438 4.05318 7.98531 4.00073C9.74494 3.97489 11.5153 4.63461 12.8432 6.00502C13.8812 7.07635 14.6101 8.5405 14.8821 10.3602L15.8896 8.9389C16.209 8.48833 16.8331 8.38198 17.2837 8.70137C17.7343 9.02075 17.8406 9.64492 17.5213 10.0955L15.0678 13.5568C14.7484 14.0073 14.1242 14.1137 13.6737 13.7943L10.2124 11.3408C9.76181 11.0214 9.65546 10.3973 9.97484 9.9467C10.2942 9.49613 10.9184 9.38978 11.369 9.70916L12.9263 10.8131C12.7275 9.27771 12.1449 8.15845 11.4068 7.39676C10.4847 6.44507 9.25506 5.9823 8.01469 6.00051ZM6.5 13C7.32843 13 8 12.3284 8 11.5C8 10.6716 7.32843 10 6.5 10C5.67157 10 5 10.6716 5 11.5C5 12.3284 5.67157 13 6.5 13Z" fill="#D86363"/>
</svg>
