<svg width="12" height="13" viewBox="0 0 12 13" fill="none" xmlns="http://www.w3.org/2000/svg">
<path fill-rule="evenodd" clip-rule="evenodd" d="M2.13687 1.06438C1.12396 1.77396 0.411667 2.71917 0 3.9H1.41375C1.79292 3.09833 2.35354 2.46458 3.09563 1.99875C3.83771 1.53292 4.6475 1.3 5.525 1.3C6.12083 1.3 6.695 1.41104 7.2475 1.63313C7.8 1.85521 8.2875 2.1775 8.71 2.6H7.475V3.9H11.375V0H10.075V2.1775C9.5225 1.48417 8.84812 0.947917 8.05187 0.56875C7.25562 0.189583 6.41333 0 5.525 0C4.27917 0 3.14979 0.354792 2.13687 1.06438ZM2.275 5.2H0.325V13H2.275V5.2ZM4.225 5.85V5.2H5.09167V5.85H4.225ZM6.825 5.85V5.2H5.95833V5.85H6.825ZM6.825 6.5H6.175V7.8H6.825V6.5ZM6.825 8.45H6.175V9.75H6.825V8.45ZM6.825 10.4H6.175V11.7H6.825V10.4ZM6.825 12.35H5.95833V13H6.825V12.35ZM5.09167 13V12.35H4.225V13H5.09167ZM4.225 11.7H4.875V10.4H4.225V11.7ZM4.225 9.75H4.875V8.45H4.225V9.75ZM4.225 7.8H4.875V6.5H4.225V7.8ZM10.725 5.2H8.775V13H10.725V5.2Z" fill="#BA4F4F"/>
</svg>
