<svg width="13" height="12" viewBox="0 0 13 12" fill="none" xmlns="http://www.w3.org/2000/svg">
<path d="M9.04297 7.17578H11.0117C11.1211 6.66536 11.1758 6.27344 11.1758 6C11.1758 5.72656 11.1211 5.33464 11.0117 4.82422H9.04297C9.09766 5.20703 9.125 5.59896 9.125 6C9.125 6.40104 9.09766 6.79297 9.04297 7.17578ZM8.00391 10.4023C8.45964 10.2565 8.93359 9.98307 9.42578 9.58203C9.91797 9.16276 10.2917 8.74349 10.5469 8.32422H8.82422C8.64193 9.05339 8.36849 9.74609 8.00391 10.4023ZM7.86719 7.17578C7.92188 6.79297 7.94922 6.40104 7.94922 6C7.94922 5.59896 7.92188 5.20703 7.86719 4.82422H5.13281C5.07812 5.20703 5.05078 5.59896 5.05078 6C5.05078 6.40104 5.07812 6.79297 5.13281 7.17578H7.86719ZM6.5 10.6484C7.01042 9.90104 7.38411 9.1263 7.62109 8.32422H5.37891C5.61589 9.1263 5.98958 9.90104 6.5 10.6484ZM4.17578 3.67578C4.39453 2.89193 4.66797 2.19922 4.99609 1.59766C4.54036 1.74349 4.05729 2.02604 3.54688 2.44531C3.05469 2.84635 2.6901 3.25651 2.45312 3.67578H4.17578ZM2.45312 8.32422C2.6901 8.74349 3.05469 9.16276 3.54688 9.58203C4.05729 9.98307 4.54036 10.2565 4.99609 10.4023C4.63151 9.74609 4.35807 9.05339 4.17578 8.32422H2.45312ZM1.98828 7.17578H3.95703C3.90234 6.79297 3.875 6.40104 3.875 6C3.875 5.59896 3.90234 5.20703 3.95703 4.82422H1.98828C1.87891 5.33464 1.82422 5.72656 1.82422 6C1.82422 6.27344 1.87891 6.66536 1.98828 7.17578ZM6.5 1.35156C5.98958 2.09896 5.61589 2.8737 5.37891 3.67578H7.62109C7.38411 2.8737 7.01042 2.09896 6.5 1.35156ZM10.5469 3.67578C10.2917 3.25651 9.91797 2.84635 9.42578 2.44531C8.93359 2.02604 8.45964 1.74349 8.00391 1.59766C8.33203 2.19922 8.60547 2.89193 8.82422 3.67578H10.5469ZM2.37109 1.89844C3.51953 0.75 4.89583 0.175781 6.5 0.175781C8.10417 0.175781 9.47135 0.75 10.6016 1.89844C11.75 3.02865 12.3242 4.39583 12.3242 6C12.3242 7.60417 11.75 8.98047 10.6016 10.1289C9.47135 11.2591 8.10417 11.8242 6.5 11.8242C4.89583 11.8242 3.51953 11.2591 2.37109 10.1289C1.24089 8.98047 0.675781 7.60417 0.675781 6C0.675781 4.39583 1.24089 3.02865 2.37109 1.89844Z" fill="#306BB7"/>
</svg>
